<?xml version="1.0" encoding="UTF-8"?>
<svg version="1.1" xmlns="http://www.w3.org/2000/svg" width="30" height="20">
<path d="M0 0 C9.9 0 19.8 0 30 0 C30 6.6 30 13.2 30 20 C20.1 20 10.2 20 0 20 C0 13.4 0 6.8 0 0 Z " fill="#4D43B8" transform="translate(0,0)"/>
<path d="M0 0 C2.89839328 1.54580975 4.54079398 2.72116462 5.671875 5.87109375 C6.41273528 9.79024461 6.33323283 11.459933 4.1875 14.9375 C1.58552014 17.39079529 0.68532969 17.94040611 -2.875 18.25 C-6.35205038 17.97183597 -7.67999848 17.587694 -10 15 C-10.125 12.5625 -10.125 12.5625 -10 10 C-10.91568906 7.74867483 -10.91568906 7.74867483 -12 6 C-8.15778408 1.00511931 -6.46499322 -0.63382286 0 0 Z " fill="#02CFCC" transform="translate(18,1)"/>
<path d="M0 0 C5.61 0 11.22 0 17 0 C17 0.33 17 0.66 17 1 C15.3603125 1.37125 15.3603125 1.37125 13.6875 1.75 C9.83804526 3.05489991 8.8780935 3.54035408 7 7 C6.690625 7.845625 6.38125 8.69125 6.0625 9.5625 C4.83832039 12.37091206 3.554023 13.3824521 1 15 C0 14 0 14 -0.09765625 10.83984375 C-0.04882812 5.41992188 -0.04882812 5.41992188 0 0 Z " fill="#544DC0" transform="translate(0,0)"/>
<path d="M0 0 C2.95662966 0.22743305 4.55033688 0.61235938 6.8125 2.5625 C7.204375 3.036875 7.59625 3.51125 8 4 C7 7 7 7 5.5625 8.375 C3.62907486 10.38576214 2.9168436 12.39052205 2 15 C1.34 14.67 0.68 14.34 0 14 C0 12.35 0 10.7 0 9 C-0.99 9 -1.98 9 -3 9 C-2.25 2.25 -2.25 2.25 0 0 Z " fill="#1B862D" transform="translate(15,1)"/>
<path d="M0 0 C0.99 0.66 1.98 1.32 3 2 C3 3.66666667 3 5.33333333 3 7 C6.44450737 9.29633824 8.93812283 9.54016485 13 10 C13 10.33 13 10.66 13 11 C6.73 11 0.46 11 -6 11 C-6 9.02 -6 7.04 -6 5 C-4 4 -4 4 -1 3 C-0.67 2.01 -0.34 1.02 0 0 Z " fill="#4139AD" transform="translate(6,9)"/>
<path d="M0 0 C2.125 0.375 2.125 0.375 4 1 C4.33 3.64 4.66 6.28 5 9 C1.37 9 -2.26 9 -6 9 C-6.33 8.34 -6.66 7.68 -7 7 C-4.66666667 4.66666667 -2.33333333 2.33333333 0 0 Z " fill="#514ABF" transform="translate(25,11)"/>
<path d="M0 0 C0.99 0.33 1.98 0.66 3 1 C2.76435605 5.08449505 2.59037881 7.34214932 -0.1875 10.4375 C-3.41176773 12.22875985 -5.36804503 12.33785628 -9 12 C-8.34 11.67 -7.68 11.34 -7 11 C-6.67 10.01 -6.34 9.02 -6 8 C-5.34 8 -4.68 8 -4 8 C-3.525625 6.865625 -3.05125 5.73125 -2.5625 4.5625 C-1 1 -1 1 0 0 Z " fill="#2BC0C1" transform="translate(21,7)"/>
<path d="M0 0 C0.99 0.33 1.98 0.66 3 1 C2.01 3.31 1.02 5.62 0 8 C-0.66 8 -1.32 8 -2 8 C-2 8.66 -2 9.32 -2 10 C-3.32 9.34 -4.64 8.68 -6 8 C-4.75237172 4.15314615 -3.6129609 1.97070595 0 0 Z " fill="#36C0C1" transform="translate(12,1)"/>
<path d="M0 0 C4.29 0 8.58 0 13 0 C12 3 12 3 8.9375 4.6875 C7.968125 5.120625 6.99875 5.55375 6 6 C3.97945196 4.35830472 1.97956942 2.69088222 0 1 C0 0.67 0 0.34 0 0 Z " fill="#1F1A9D" transform="translate(17,0)"/>
<path d="M0 0 C2.86724686 0.57344937 3.8614515 0.8614515 6 3 C5 6 5 6 3 8 C-0.625 7.625 -0.625 7.625 -4 7 C-3.34 6.67 -2.68 6.34 -2 6 C-2 5.34 -2 4.68 -2 4 C-1.01 4 -0.02 4 1 4 C0.67 2.68 0.34 1.36 0 0 Z " fill="#127A21" transform="translate(17,2)"/>
<path d="M0 0 C0.680625 0.474375 1.36125 0.94875 2.0625 1.4375 C5.41841956 3.2225636 8.24161481 3.63153086 12 4 C12 4.33 12 4.66 12 5 C6.72 5 1.44 5 -4 5 C-2.68 3.35 -1.36 1.7 0 0 Z " fill="#2220A2" transform="translate(7,15)"/>
<path d="M0 0 C0.66 0.33 1.32 0.66 2 1 C2 2.65 2 4.3 2 6 C1.67 5.34 1.34 4.68 1 4 C-1.475 5.485 -1.475 5.485 -4 7 C-4 5.68 -4 4.36 -4 3 C-2 1.25 -2 1.25 0 0 Z " fill="#3A34A6" transform="translate(28,2)"/>
<path d="M0 0 C0.99 0.66 1.98 1.32 3 2 C2.52797514 6.24822374 0.03344482 8.19989709 -3 11 C-3.99 10.67 -4.98 10.34 -6 10 C-5.01 9.278125 -4.02 8.55625 -3 7.8125 C-0.30781491 5.62716848 -0.30781491 5.62716848 0.375 2.1875 C0.25125 1.465625 0.1275 0.74375 0 0 Z " fill="#2D4B6D" transform="translate(6,9)"/>
<path d="M0 0 C0.99 0.33 1.98 0.66 3 1 C3 2.32 3 3.64 3 5 C1.02 5.33 -0.96 5.66 -3 6 C-1.125 1.125 -1.125 1.125 0 0 Z " fill="#248A54" transform="translate(15,1)"/>
<path d="M0 0 C0.33 1.32 0.66 2.64 1 4 C1.99 4 2.98 4 4 4 C4.33 4.99 4.66 5.98 5 7 C3.35 6.67 1.7 6.34 0 6 C-1 3 -1 3 0 0 Z " fill="#04ACA9" transform="translate(9,11)"/>
<path d="M0 0 C2.86724686 0.57344937 3.8614515 0.8614515 6 3 C5.67 3.99 5.34 4.98 5 6 C5 5.34 5 4.68 5 4 C3.68 4 2.36 4 1 4 C0.67 2.68 0.34 1.36 0 0 Z " fill="#136318" transform="translate(17,2)"/>
</svg>
